<?xml version="1.0" encoding="UTF-8"?>
<svg width="25px" height="25px" viewBox="0 0 25 25" version="1.1" xmlns="http://www.w3.org/2000/svg" xmlns:xlink="http://www.w3.org/1999/xlink">
    <!-- Generator: Sketch 56.3 (81716) - https://sketch.com -->
    <title>flex-just-sp-cent</title>
    <desc>Created with Sketch.</desc>
    <g id="flex-just-sp-cent" stroke="none" stroke-width="1" fill="none" fill-rule="evenodd">
        <path d="M23,4 L24,4 C24.5522847,4 25,4.44771525 25,5 L25,20 C25,20.5522847 24.5522847,21 24,21 L23,21 C22.4477153,21 22,20.5522847 22,20 L22,5 C22,4.44771525 22.4477153,4 23,4 Z M1,4 L2,4 C2.55228475,4 3,4.44771525 3,5 L3,20 C3,20.5522847 2.55228475,21 2,21 L1,21 C0.44771525,21 6.76353751e-17,20.5522847 0,20 L0,5 C-6.76353751e-17,4.44771525 0.44771525,4 1,4 Z M14,8 L16,8 C16.5522847,8 17,8.44771525 17,9 L17,16 C17,16.5522847 16.5522847,17 16,17 L14,17 C13.4477153,17 13,16.5522847 13,16 L13,9 C13,8.44771525 13.4477153,8 14,8 Z M9,8 L11,8 C11.5522847,8 12,8.44771525 12,9 L12,16 C12,16.5522847 11.5522847,17 11,17 L9,17 C8.44771525,17 8,16.5522847 8,16 L8,9 C8,8.44771525 8.44771525,8 9,8 Z" id="Combined-Shape" fill="#D8D8D8"></path>
    </g>
</svg>