<?xml version="1.0" encoding="UTF-8"?>
<svg width="25px" height="25px" viewBox="0 0 25 25" version="1.1" xmlns="http://www.w3.org/2000/svg" xmlns:xlink="http://www.w3.org/1999/xlink">
    <!-- Generator: Sketch 56.3 (81716) - https://sketch.com -->
    <title>flex-al-start</title>
    <desc>Created with Sketch.</desc>
    <g id="flex-al-start" stroke="none" stroke-width="1" fill="none" fill-rule="evenodd">
        <path d="M5,0 L20,0 C20.5522847,-1.01453063e-16 21,0.44771525 21,1 L21,2 C21,2.55228475 20.5522847,3 20,3 L5,3 C4.44771525,3 4,2.55228475 4,2 L4,1 C4,0.44771525 4.44771525,1.01453063e-16 5,0 Z M5,22 L20,22 C20.5522847,22 21,22.4477153 21,23 L21,24 C21,24.5522847 20.5522847,25 20,25 L5,25 C4.44771525,25 4,24.5522847 4,24 L4,23 C4,22.4477153 4.44771525,22 5,22 Z M8,5 L10,5 C10.5522847,5 11,5.44771525 11,6 L11,13 C11,13.5522847 10.5522847,14 10,14 L8,14 C7.44771525,14 7,13.5522847 7,13 L7,6 C7,5.44771525 7.44771525,5 8,5 Z M15,5 L17,5 C17.5522847,5 18,5.44771525 18,6 L18,13 C18,13.5522847 17.5522847,14 17,14 L15,14 C14.4477153,14 14,13.5522847 14,13 L14,6 C14,5.44771525 14.4477153,5 15,5 Z" id="Combined-Shape" fill="#D8D8D8"></path>
    </g>
</svg>