<svg width="43" height="52" xmlns="http://www.w3.org/2000/svg"><g fill="#000" fill-rule="nonzero"><path d="M31.438 0h.374c.299 3.688-1.113 6.444-2.83 8.44-1.683 1.98-3.99 3.903-7.719 3.611-.249-3.635 1.166-6.186 2.88-8.177C25.733 2.019 28.646.367 31.438 0zM43 38.193v.102c-1.054 3.142-2.557 5.834-4.391 8.332-1.675 2.268-3.727 5.32-7.39 5.32-3.167 0-5.27-2.003-8.515-2.058-3.432-.055-5.32 1.676-8.458 2.111h-1.07c-2.304-.328-4.164-2.125-5.52-3.743C3.663 43.475.575 37.297 0 29.391V27.07C.243 21.41 3.036 16.81 6.749 14.58c1.96-1.185 4.653-2.195 7.652-1.744 1.286.196 2.599.63 3.75 1.058 1.09.413 2.455 1.144 3.747 1.106.876-.025 1.747-.474 2.63-.791 2.584-.919 5.118-1.972 8.457-1.477 4.014.597 6.863 2.352 8.623 5.06-3.395 2.127-6.08 5.332-5.621 10.805.408 4.972 3.344 7.88 7.013 9.595z"/></g></svg>