<svg width="59" height="59" xmlns="http://www.w3.org/2000/svg"><g fill="#000" fill-rule="nonzero"><path d="M59 29.874c0-1.843-.173-3.687-.516-5.478A1.722 1.722 0 0056.792 23h-27.07A1.72 1.72 0 0028 24.718v10.31c0 .95.77 1.72 1.722 1.72h13.889c-.865 1.747-2.058 3.264-3.458 4.54L49.887 51C55.487 45.676 59 38.184 59 29.874zM29.45 13.766a15.55 15.55 0 019.366 3.102c.688.512 1.66.45 2.27-.16l7.405-7.343a1.71 1.71 0 00-.111-2.536A29.671 29.671 0 0029.45 0 29.565 29.565 0 005 12.9L15.187 23c2.43-5.428 7.898-9.234 14.264-9.234zM29.39 59c6.608 0 12.693-2.202 17.61-5.872l-9.968-9.908a15.609 15.609 0 01-7.643 2.014c-6.35 0-11.804-3.806-14.228-9.234L5 46.1C10.295 53.878 19.251 59 29.39 59zM14 32.02c-.132-.825-.25-1.657-.25-2.52s.118-1.694.25-2.52L3.215 16A29.962 29.962 0 000 29.5 29.96 29.96 0 003.215 43L14 32.02z"/></g></svg>