<svg width="70" height="70" xmlns="http://www.w3.org/2000/svg"><g fill="#000" fill-rule="nonzero"><path d="M17.747 24H7.097c-.053 0-.097.028-.097.063v.866c0 .04.049.071.11.071H17.79c.115 0 .209-.06.209-.135v-.702c0-.09-.113-.163-.253-.163zM17.843 45H7.125c-.069 0-.125.036-.125.08v.825c0 .052.066.095.148.095h10.699c.084 0 .153-.044.153-.099v-.8c0-.056-.07-.101-.157-.101zM35.904 33H23.149c-.082 0-.149.045-.149.1v.81c0 .05.06.09.134.09h11.532a.352.352 0 00.169-.04c.216-.12.85-.49 1.153-.865.035-.043-.011-.095-.084-.095zM17.708 28H7.276c-.153 0-.276.08-.276.178v.66c0 .09.112.162.25.162h10.448c.167 0 .302-.087.302-.195v-.616c0-.105-.13-.189-.292-.189zM14.85 39h-4.687c-.09 0-.163.045-.163.1v.788c0 .062.081.112.182.112h4.676c.078 0 .142-.04.142-.087v-.82c0-.051-.068-.093-.15-.093zM14.78 33h-4.557c-.123 0-.223.061-.223.137v.737c0 .07.092.126.205.126h4.58c.12 0 .215-.06.215-.132v-.732c0-.075-.099-.136-.22-.136zM15 30.124c0-.068-.09-.124-.202-.124h-4.63c-.093 0-.168.046-.168.103v.782c0 .063.084.115.187.115h4.684c.071 0 .129-.036.129-.08v-.796zM26.85 39h-4.652c-.11 0-.198.054-.198.122v.767c0 .062.08.111.18.111h4.642c.098 0 .178-.049.178-.11v-.798c0-.05-.067-.092-.15-.092zM15 36.12c0-.066-.088-.12-.196-.12h-4.612c-.106 0-.192.053-.192.119v.744c0 .076.1.137.223.137h4.539c.131 0 .238-.066.238-.147v-.732zM26.84 30h-4.676c-.09 0-.164.045-.164.1v.768c0 .073.096.132.214.132h4.65c.075 0 .136-.038.136-.084v-.817c0-.055-.072-.099-.16-.099zM35.99 36.912c-.292-.366-.906-.73-1.14-.86a.436.436 0 00-.211-.052h-11.49c-.083 0-.149.044-.149.1v.79c0 .06.074.11.165.11h12.747c.067 0 .109-.048.077-.088zM58.881 30h-7.313c-.05 0-.095.021-.112.053l-.449.838c-.028.053.03.109.112.109h7.762c.066 0 .119-.036.119-.081v-.838c0-.045-.053-.081-.119-.081zM61.88 28h-9.341c-.052 0-.098.022-.114.055l-.419.838c-.026.052.032.107.114.107h9.76c.066 0 .12-.036.12-.081v-.838c0-.045-.054-.081-.12-.081zM61.88 24h-8.305c-.05 0-.096.021-.113.053l-.455.838c-.028.053.03.109.114.109h8.758c.067 0 .121-.036.121-.081v-.838c0-.045-.054-.081-.12-.081zM48.993 30.891l-.45-.838c-.017-.032-.062-.053-.112-.053h-7.254c-.098 0-.177.054-.177.12v.729c0 .083.1.151.223.151h7.657c.083 0 .141-.056.113-.109zM36.56 28.064a.288.288 0 00-.194-.064H20.188c-.104 0-.188.056-.188.125v.76c0 .063.078.115.174.115h16.702c.079 0 .137-.048.121-.099-.06-.193-.211-.622-.437-.837zM46.993 24.891l-.45-.838c-.018-.032-.063-.053-.113-.053h-8.265c-.091 0-.165.05-.165.111v.775c0 .063.075.114.168.114h8.712c.083 0 .141-.056.113-.109zM34.966 24.889c-.474-.26-1.783-.889-3.408-.889H20.163c-.09 0-.163.049-.163.109v.765c0 .07.085.126.189.126h14.716c.089 0 .129-.074.06-.111zM50.966 45h-.922c-.03 0-.052.023-.041.044l.45.955.081.001.464-.966c.008-.016-.008-.034-.032-.034zM53.884 36h-6.768c-.08 0-.137.056-.109.11l.448.837c.017.032.06.053.11.053h5.895c.049 0 .092-.022.109-.054l.424-.838c.027-.053-.029-.108-.11-.108zM52.884 39h-4.768c-.08 0-.136.056-.109.109l.433.837c.017.033.06.054.11.054h3.897c.049 0 .093-.021.11-.053l.436-.838c.027-.053-.029-.109-.11-.109zM58.88 33H50.56c-.05 0-.096.021-.113.053l-.312.584c-.038.071-.186.071-.224 0l-.314-.584c-.017-.032-.062-.053-.112-.053h-8.301c-.101 0-.183.055-.183.124v.737c0 .077.092.139.205.139h4.216c.066 0 .12-.036.12-.081 0-.091.188-.113.232-.027l.028.054c.017.032.062.054.113.054h8.153c.05 0 .094-.02.112-.052l.049-.089c.047-.084.231-.061.231.029v.03c0 .046.054.082.12.082h4.301c.066 0 .12-.036.12-.081v-.838c0-.045-.054-.081-.12-.081zM51.884 42h-2.768c-.08 0-.137.056-.109.11l.446.837c.017.032.06.053.109.053h1.905c.05 0 .093-.022.11-.054l.417-.839c.026-.052-.03-.107-.11-.107zM59.868 36h-4.736c-.073 0-.132.036-.132.081v.838c0 .045.059.081.132.081h4.736c.073 0 .132-.036.132-.081v-.838c0-.045-.059-.081-.132-.081zM17.885 42H7.114c-.063 0-.114.033-.114.073v.83c0 .053.068.097.152.097h10.744c.057 0 .104-.03.104-.067v-.86c0-.04-.051-.073-.115-.073zM61.874 45h-7.747c-.07 0-.127.036-.127.081v.838c0 .045.057.081.127.081h7.746c.07 0 .127-.036.127-.081v-.838c0-.045-.057-.081-.126-.081zM59.868 39h-4.736c-.073 0-.132.036-.132.081v.838c0 .045.059.081.132.081h4.736c.073 0 .132-.036.132-.081v-.838c0-.045-.059-.081-.132-.081zM45.868 36H41.22c-.121 0-.22.06-.22.136v.71c0 .085.112.154.25.154h4.618c.073 0 .132-.036.132-.081v-.838c0-.045-.059-.081-.132-.081zM61.874 42h-7.747c-.07 0-.127.036-.127.081v.838c0 .045.057.081.127.081h7.746c.07 0 .127-.036.127-.081v-.838c0-.045-.057-.081-.126-.081zM36.9 30h-4.764c-.075 0-.136.04-.136.089v.825c0 .048.059.086.13.086h4.477c.058 0 .11-.024.128-.06.073-.143.245-.517.265-.874.002-.036-.044-.066-.1-.066zM36.743 39.073c-.021-.044-.084-.073-.154-.073h-4.4c-.104 0-.189.055-.189.124v.735c0 .078.097.141.216.141h4.646c.08 0 .142-.044.138-.097-.027-.337-.183-.683-.257-.83zM36.911 42H20.133c-.073 0-.133.04-.133.089v.824c0 .048.059.087.132.087h16.256a.224.224 0 00.147-.048c.247-.22.41-.701.463-.882.011-.036-.03-.07-.087-.07zM34.92 45H20.152c-.084 0-.152.046-.152.102v.805c0 .051.062.093.139.093h11.4c1.659 0 2.988-.657 3.433-.906.057-.032.022-.094-.052-.094zM48.993 28.893l-.459-.838c-.018-.033-.068-.055-.124-.055H38.205c-.113 0-.205.057-.205.127v.764c0 .06.08.109.177.109h10.691c.09 0 .154-.054.125-.107zM46 42.062c0-.034-.044-.062-.099-.062h-7.737c-.09 0-.164.047-.164.104v.778c0 .065.083.118.187.118H45.9c.055 0 .099-.028.099-.062v-.876zM45.868 39h-4.64c-.126 0-.228.063-.228.14v.725c0 .075.098.135.219.135h4.65c.072 0 .13-.036.13-.081v-.838H46c0-.045-.059-.081-.132-.081zM45.909 45h-7.744c-.091 0-.165.047-.165.105v.793c0 .056.072.102.162.102h7.767c.04 0 .071-.02.071-.045v-.897c0-.032-.04-.058-.091-.058z"/><path d="M67.305 0H37.037a1.036 1.036 0 100 2.073h30.268a.63.63 0 01.622.622v30.268a1.036 1.036 0 102.073 0V2.695A2.698 2.698 0 0067.305 0zM68.975 36.367c-.567 0-1.026.46-1.026 1.026v29.94a.624.624 0 01-.615.616H2.666a.624.624 0 01-.615-.615V2.666c0-.333.282-.615.615-.615h29.941a1.025 1.025 0 100-2.051H2.667A2.67 2.67 0 000 2.666v64.668A2.67 2.67 0 002.666 70h64.668A2.67 2.67 0 0070 67.334V37.393c0-.567-.46-1.026-1.025-1.026z"/></g></svg>