<?xml version="1.0" encoding="UTF-8"?>
<svg width="25px" height="25px" viewBox="0 0 25 25" version="1.1" xmlns="http://www.w3.org/2000/svg" xmlns:xlink="http://www.w3.org/1999/xlink">
    <!-- Generator: Sketch 56.3 (81716) - https://sketch.com -->
    <title>flex-just-sp-ar</title>
    <desc>Created with Sketch.</desc>
    <g id="flex-just-sp-ar" stroke="none" stroke-width="1" fill="none" fill-rule="evenodd">
        <path d="M23,4 L24,4 C24.5522847,4 25,4.44771525 25,5 L25,20 C25,20.5522847 24.5522847,21 24,21 L23,21 C22.4477153,21 22,20.5522847 22,20 L22,5 C22,4.44771525 22.4477153,4 23,4 Z M1,4 L2,4 C2.55228475,4 3,4.44771525 3,5 L3,20 C3,20.5522847 2.55228475,21 2,21 L1,21 C0.44771525,21 6.76353751e-17,20.5522847 0,20 L0,5 C-6.76353751e-17,4.44771525 0.44771525,4 1,4 Z M15,8 L17,8 C17.5522847,8 18,8.44771525 18,9 L18,16 C18,16.5522847 17.5522847,17 17,17 L15,17 C14.4477153,17 14,16.5522847 14,16 L14,9 C14,8.44771525 14.4477153,8 15,8 Z M8,8 L10,8 C10.5522847,8 11,8.44771525 11,9 L11,16 C11,16.5522847 10.5522847,17 10,17 L8,17 C7.44771525,17 7,16.5522847 7,16 L7,9 C7,8.44771525 7.44771525,8 8,8 Z" id="Combined-Shape" fill="#D8D8D8"></path>
    </g>
</svg>