<?xml version="1.0" encoding="UTF-8"?>
<svg width="25px" height="25px" viewBox="0 0 25 25" version="1.1" xmlns="http://www.w3.org/2000/svg" xmlns:xlink="http://www.w3.org/1999/xlink">
    <!-- Generator: Sketch 56.3 (81716) - https://sketch.com -->
    <title>flex-just-start</title>
    <desc>Created with Sketch.</desc>
    <g id="flex-just-start" stroke="none" stroke-width="1" fill="none" fill-rule="evenodd">
        <path d="M23,4 L24,4 C24.5522847,4 25,4.44771525 25,5 L25,20 C25,20.5522847 24.5522847,21 24,21 L23,21 C22.4477153,21 22,20.5522847 22,20 L22,5 C22,4.44771525 22.4477153,4 23,4 Z M1,4 L2,4 C2.55228475,4 3,4.44771525 3,5 L3,20 C3,20.5522847 2.55228475,21 2,21 L1,21 C0.44771525,21 6.76353751e-17,20.5522847 0,20 L0,5 C-6.76353751e-17,4.44771525 0.44771525,4 1,4 Z M12,8 L14,8 C14.5522847,8 15,8.44771525 15,9 L15,16 C15,16.5522847 14.5522847,17 14,17 L12,17 C11.4477153,17 11,16.5522847 11,16 L11,9 C11,8.44771525 11.4477153,8 12,8 Z M6,8 L8,8 C8.55228475,8 9,8.44771525 9,9 L9,16 C9,16.5522847 8.55228475,17 8,17 L6,17 C5.44771525,17 5,16.5522847 5,16 L5,9 C5,8.44771525 5.44771525,8 6,8 Z" id="Combined-Shape" fill="#D8D8D8"></path>
    </g>
</svg>