<?xml version="1.0" encoding="UTF-8"?>
<svg width="25px" height="25px" viewBox="0 0 25 25" version="1.1" xmlns="http://www.w3.org/2000/svg" xmlns:xlink="http://www.w3.org/1999/xlink">
    <!-- Generator: Sketch 56.3 (81716) - https://sketch.com -->
    <title>flex-al-center</title>
    <desc>Created with Sketch.</desc>
    <g id="flex-al-center" stroke="none" stroke-width="1" fill="none" fill-rule="evenodd">
        <path d="M5,0 L20,0 C20.5522847,-1.01453063e-16 21,0.44771525 21,1 L21,2 C21,2.55228475 20.5522847,3 20,3 L5,3 C4.44771525,3 4,2.55228475 4,2 L4,1 C4,0.44771525 4.44771525,1.01453063e-16 5,0 Z M5,22 L20,22 C20.5522847,22 21,22.4477153 21,23 L21,24 C21,24.5522847 20.5522847,25 20,25 L5,25 C4.44771525,25 4,24.5522847 4,24 L4,23 C4,22.4477153 4.44771525,22 5,22 Z M8,8 L10,8 C10.5522847,8 11,8.44771525 11,9 L11,16 C11,16.5522847 10.5522847,17 10,17 L8,17 C7.44771525,17 7,16.5522847 7,16 L7,9 C7,8.44771525 7.44771525,8 8,8 Z M15,8 L17,8 C17.5522847,8 18,8.44771525 18,9 L18,16 C18,16.5522847 17.5522847,17 17,17 L15,17 C14.4477153,17 14,16.5522847 14,16 L14,9 C14,8.44771525 14.4477153,8 15,8 Z" id="Combined-Shape" fill="#D8D8D8"></path>
    </g>
</svg>