<?xml version="1.0" encoding="UTF-8"?>
<svg width="25px" height="25px" viewBox="0 0 25 25" version="1.1" xmlns="http://www.w3.org/2000/svg" xmlns:xlink="http://www.w3.org/1999/xlink">
    <!-- Generator: Sketch 56.3 (81716) - https://sketch.com -->
    <title>flex-just-end</title>
    <desc>Created with Sketch.</desc>
    <g id="flex-just-end" stroke="none" stroke-width="1" fill="none" fill-rule="evenodd">
        <path d="M23,4 L24,4 C24.5522847,4 25,4.44771525 25,5 L25,20 C25,20.5522847 24.5522847,21 24,21 L23,21 C22.4477153,21 22,20.5522847 22,20 L22,5 C22,4.44771525 22.4477153,4 23,4 Z M1,4 L2,4 C2.55228475,4 3,4.44771525 3,5 L3,20 C3,20.5522847 2.55228475,21 2,21 L1,21 C0.44771525,21 6.76353751e-17,20.5522847 0,20 L0,5 C-6.76353751e-17,4.44771525 0.44771525,4 1,4 Z M17,8 L19,8 C19.5522847,8 20,8.44771525 20,9 L20,16 C20,16.5522847 19.5522847,17 19,17 L17,17 C16.4477153,17 16,16.5522847 16,16 L16,9 C16,8.44771525 16.4477153,8 17,8 Z M11,8 L13,8 C13.5522847,8 14,8.44771525 14,9 L14,16 C14,16.5522847 13.5522847,17 13,17 L11,17 C10.4477153,17 10,16.5522847 10,16 L10,9 C10,8.44771525 10.4477153,8 11,8 Z" id="Combined-Shape" fill="#D8D8D8"></path>
    </g>
</svg>