<?xml version="1.0" standalone="no"?>
<!DOCTYPE svg PUBLIC "-//W3C//DTD SVG 20010904//EN"
 "http://www.w3.org/TR/2001/REC-SVG-20010904/DTD/svg10.dtd">
<svg version="1.0" xmlns="http://www.w3.org/2000/svg"
 width="80.000000pt" height="87.000000pt" viewBox="0 0 80.000000 87.000000"
 preserveAspectRatio="xMidYMid meet">

<g transform="translate(0.000000,87.000000) scale(0.100000,-0.100000)"
fill="#000000" stroke="none">
<path d="M1 753 c0 -73 3 -110 9 -98 14 34 54 64 187 141 l128 74 -162 0 -163
0 1 -117z"/>
<path d="M385 834 c0 -36 -1 -37 -140 -118 -88 -51 -144 -91 -152 -106 -17
-34 -17 -306 0 -339 15 -30 272 -181 307 -181 38 0 292 151 308 183 9 18 12
67 10 161 l-3 135 -148 -86 c-132 -76 -151 -84 -173 -75 -29 14 -32 52 -6 74
9 9 80 52 158 97 154 89 190 98 231 59 l23 -21 0 126 0 127 -207 0 -208 0 0
-36z"/>
<path d="M0 121 l0 -121 173 0 172 0 -80 46 c-179 104 -221 132 -242 164 l-23
33 0 -122z"/>
<path d="M775 206 c-13 -21 -70 -60 -166 -116 l-147 -85 166 -3 c90 -1 167 -1
169 1 2 3 2 56 1 119 l-3 115 -20 -31z"/>
</g>
</svg>
